# xmcd CD database file
#
# Track frame offsets:
#	150
#	18677
#	37754
#	57488
#	72789
#	87789
#	109585
#	115575
#	145920
#	167024
#	179043
#	196728
#	209954
#	235731
#	266590
#
# Disc length: 3813 seconds
#
# Revision: 0
# Processed by: cddbd v1.5.2PL0 Copyright (c) Steve Scherf et al.
# Submitted via: CDex 1.51
#
DISCID=d30ee30f
DTITLE=Richard Koechli - Howlin` With The Bad Boys
DYEAR=2011
DGENRE=Blues
TTITLE0=Easy Road 
TTITLE1=Le Bonheur Existe 
TTITLE2=Leave Your Toys At Home
TTITLE3=Howlin` With The Bad Boys
TTITLE4=Kokomo Dans Mes Rêves
TTITLE5=Le Balai Du Sorcier James
TTITLE6=Frank Meets Charley
TTITLE7=CEO Worksong
TTITLE8=Won`t You Be My Savior
TTITLE9=Esclave En 2010
TTITLE10=Small Talk In Blues Heaven
TTITLE11=Blues-Police Song
TTITLE12=Bruno
TTITLE13=In The Spirit
TTITLE14=A Little Waltz For You
EXTD=YEAR: 2011
EXTT0=
EXTT1=
EXTT2=
EXTT3=
EXTT4=
EXTT5=
EXTT6=
EXTT7=
EXTT8=
EXTT9=
EXTT10=
EXTT11=
EXTT12=
EXTT13=
EXTT14=
PLAYORDER=
